# xmcd
#
# Track frame offsets:
#	150
#	18790
#	38892
#	61265
#	92822
#	109697
#	127197
#	138165
#	158080
#	176680
#	195227
#	210375
#
# Disc length: 3180 seconds
#
# Revision: 0
# Processed by: cddbd v1.5.2PL0 Copyright (c) Steve Scherf et al.
# Submitted via: EZCDAudioConverter 7.0.4.1
#
DISCID=970c6a0c
DTITLE=Livin' Blues - Out of the blue
DYEAR=1995
DGENRE=Blues
TTITLE0=Mysterious Ways
TTITLE1=Blue side of life
TTITLE2=Voodoo dancer
TTITLE3=Skidrow
TTITLE4=Who are you
TTITLE5=Who's doing that Voodoo
TTITLE6=Hear me out
TTITLE7=Blueshouse
TTITLE8=Just wanna make love to you
TTITLE9=Crazy
TTITLE10=Don't worry, baby
TTITLE11=Red lights
EXTD=
EXTT0=
EXTT1=
EXTT2=
EXTT3=
EXTT4=
EXTT5=
EXTT6=
EXTT7=
EXTT8=
EXTT9=
EXTT10=
EXTT11=
PLAYORDER=
